<svg width="18" height="18" viewBox="0 0 18 18" fill="none" xmlns="http://www.w3.org/2000/svg">
<path d="M5.82882 1.82948L6.63626 1.57148C7.39288 1.32972 8.20127 1.72043 8.52528 2.48448L9.17009 4.00499C9.45107 4.66758 9.29515 5.44676 8.7846 5.93136L7.36386 7.27987C7.45152 8.08648 7.72266 8.88072 8.17726 9.66261C8.63186 10.4445 9.19963 11.0931 9.88056 11.6084L11.587 11.0394C12.2338 10.8237 12.9382 11.0716 13.3349 11.6545L14.2592 13.0124C14.7203 13.6899 14.6374 14.6247 14.0651 15.1992L13.4519 15.8149C12.8414 16.4277 11.9695 16.65 11.163 16.3985C9.25881 15.8045 7.50807 14.0411 5.91075 11.1082C4.31109 8.17111 3.74653 5.67916 4.21706 3.63241C4.41506 2.77117 5.02819 2.08531 5.82882 1.82948Z" fill="#46C578"/>
</svg>
