<svg width="34" height="34" viewBox="0 0 34 34" fill="none" xmlns="http://www.w3.org/2000/svg">
  <path d="M23.2473 10.5289L23.3345 10.6066C23.6972 10.9693 23.7231 11.5411 23.4122 11.9336L23.3345 12.0209L18.3848 16.9706L23.3345 21.9203C23.6972 22.283 23.7231 22.8548 23.4122 23.2473L23.3345 23.3346C22.9719 23.6972 22.4001 23.7231 22.0075 23.4123L21.9203 23.3346L16.9706 18.3848L12.0208 23.3346C11.6582 23.6972 11.0864 23.7231 10.6938 23.4123L10.6066 23.3346C10.244 22.9719 10.2181 22.4001 10.5289 22.0076L10.6066 21.9203L15.5564 16.9706L10.6066 12.0209C10.244 11.6582 10.2181 11.0864 10.5289 10.6939L10.6066 10.6066C10.9692 10.244 11.5411 10.2181 11.9336 10.5289L12.0208 10.6066L16.9706 15.5564L21.9203 10.6066C22.283 10.244 22.8548 10.2181 23.2473 10.5289L23.3345 10.6066L23.2473 10.5289Z" fill="#ABABAB" />
</svg>